<svg width="568" height="124" viewBox="0 0 568 124" fill="none" xmlns="http://www.w3.org/2000/svg">
<g filter="url(#filter0_d_3_13)">
<mask id="path-1-outside-1_3_13" maskUnits="userSpaceOnUse" x="12" y="7" width="63" height="92" fill="black">
<rect fill="white" x="12" y="7" width="63" height="92"/>
<path d="M71.424 98H18.304L16.768 95.952L21.76 90.32V52.56H30.976V51.152H21.76V18.64H12.672V15.952H21.632L16.768 10.448L18.304 8.39999H35.968L37.504 10.448L32.768 15.952H26.496V18.64H32.512V51.152H58.496V52.56H32.512V90.064L37.632 95.184H55.68C58.496 95.184 61.6107 93.776 65.024 90.96C68.5227 88.0587 71.1253 84.4747 72.832 80.208L73.984 80.848L71.424 98Z"/>
</mask>
<path d="M71.424 98H18.304L16.768 95.952L21.76 90.32V52.56H30.976V51.152H21.76V18.64H12.672V15.952H21.632L16.768 10.448L18.304 8.39999H35.968L37.504 10.448L32.768 15.952H26.496V18.64H32.512V51.152H58.496V52.56H32.512V90.064L37.632 95.184H55.68C58.496 95.184 61.6107 93.776 65.024 90.96C68.5227 88.0587 71.1253 84.4747 72.832 80.208L73.984 80.848L71.424 98Z" fill="black"/>
<path d="M71.424 98V98.5H71.8549L71.9185 98.0738L71.424 98ZM18.304 98L17.904 98.3L18.054 98.5H18.304V98ZM16.768 95.952L16.3938 95.6203L16.1232 95.9256L16.368 96.252L16.768 95.952ZM21.76 90.32L22.1342 90.6517L22.26 90.5097V90.32H21.76ZM21.76 52.56V52.06H21.26V52.56H21.76ZM30.976 52.56V53.06H31.476V52.56H30.976ZM30.976 51.152H31.476V50.652H30.976V51.152ZM21.76 51.152H21.26V51.652H21.76V51.152ZM21.76 18.64H22.26V18.14H21.76V18.64ZM12.672 18.64H12.172V19.14H12.672V18.64ZM12.672 15.952V15.452H12.172V15.952H12.672ZM21.632 15.952V16.452H22.7411L22.0067 15.6209L21.632 15.952ZM16.768 10.448L16.368 10.148L16.1236 10.4739L16.3933 10.7791L16.768 10.448ZM18.304 8.39999V7.89999H18.054L17.904 8.09999L18.304 8.39999ZM35.968 8.39999L36.368 8.09999L36.218 7.89999H35.968V8.39999ZM37.504 10.448L37.883 10.7741L38.1451 10.4695L37.904 10.148L37.504 10.448ZM32.768 15.952V16.452H32.9974L33.147 16.2781L32.768 15.952ZM26.496 15.952V15.452H25.996V15.952H26.496ZM26.496 18.64H25.996V19.14H26.496V18.64ZM32.512 18.64H33.012V18.14H32.512V18.64ZM32.512 51.152H32.012V51.652H32.512V51.152ZM58.496 51.152H58.996V50.652H58.496V51.152ZM58.496 52.56V53.06H58.996V52.56H58.496ZM32.512 52.56V52.06H32.012V52.56H32.512ZM32.512 90.064H32.012V90.2711L32.1584 90.4176L32.512 90.064ZM37.632 95.184L37.2784 95.5376L37.4249 95.684H37.632V95.184ZM65.024 90.96L65.3422 91.3457L65.3432 91.3449L65.024 90.96ZM72.832 80.208L73.0748 79.7709L72.5786 79.4952L72.3678 80.0223L72.832 80.208ZM73.984 80.848L74.4785 80.9218L74.5297 80.5792L74.2268 80.4109L73.984 80.848ZM71.424 98V97.5H18.304V98V98.5H71.424V98ZM18.304 98L18.704 97.7L17.168 95.652L16.768 95.952L16.368 96.252L17.904 98.3L18.304 98ZM16.768 95.952L17.1422 96.2837L22.1342 90.6517L21.76 90.32L21.3858 89.9883L16.3938 95.6203L16.768 95.952ZM21.76 90.32H22.26V52.56H21.76H21.26V90.32H21.76ZM21.76 52.56V53.06H30.976V52.56V52.06H21.76V52.56ZM30.976 52.56H31.476V51.152H30.976H30.476V52.56H30.976ZM30.976 51.152V50.652H21.76V51.152V51.652H30.976V51.152ZM21.76 51.152H22.26V18.64H21.76H21.26V51.152H21.76ZM21.76 18.64V18.14H12.672V18.64V19.14H21.76V18.64ZM12.672 18.64H13.172V15.952H12.672H12.172V18.64H12.672ZM12.672 15.952V16.452H21.632V15.952V15.452H12.672V15.952ZM21.632 15.952L22.0067 15.6209L17.1427 10.1169L16.768 10.448L16.3933 10.7791L21.2573 16.2831L21.632 15.952ZM16.768 10.448L17.168 10.748L18.704 8.69999L18.304 8.39999L17.904 8.09999L16.368 10.148L16.768 10.448ZM18.304 8.39999V8.89999H35.968V8.39999V7.89999H18.304V8.39999ZM35.968 8.39999L35.568 8.69999L37.104 10.748L37.504 10.448L37.904 10.148L36.368 8.09999L35.968 8.39999ZM37.504 10.448L37.125 10.1219L32.389 15.6259L32.768 15.952L33.147 16.2781L37.883 10.7741L37.504 10.448ZM32.768 15.952V15.452H26.496V15.952V16.452H32.768V15.952ZM26.496 15.952H25.996V18.64H26.496H26.996V15.952H26.496ZM26.496 18.64V19.14H32.512V18.64V18.14H26.496V18.64ZM32.512 18.64H32.012V51.152H32.512H33.012V18.64H32.512ZM32.512 51.152V51.652H58.496V51.152V50.652H32.512V51.152ZM58.496 51.152H57.996V52.56H58.496H58.996V51.152H58.496ZM58.496 52.56V52.06H32.512V52.56V53.06H58.496V52.56ZM32.512 52.56H32.012V90.064H32.512H33.012V52.56H32.512ZM32.512 90.064L32.1584 90.4176L37.2784 95.5376L37.632 95.184L37.9856 94.8304L32.8656 89.7104L32.512 90.064ZM37.632 95.184V95.684H55.68V95.184V94.684H37.632V95.184ZM55.68 95.184V95.684C58.6622 95.684 61.8876 94.1957 65.3422 91.3457L65.024 90.96L64.7058 90.5743C61.3337 93.3563 58.3298 94.684 55.68 94.684V95.184ZM65.024 90.96L65.3432 91.3449C68.9068 88.3897 71.559 84.7369 73.2962 80.3937L72.832 80.208L72.3678 80.0223C70.6917 84.2124 68.1385 87.7277 64.7048 90.5751L65.024 90.96ZM72.832 80.208L72.5892 80.6451L73.7412 81.2851L73.984 80.848L74.2268 80.4109L73.0748 79.7709L72.832 80.208ZM73.984 80.848L73.4895 80.7742L70.9295 97.9262L71.424 98L71.9185 98.0738L74.4785 80.9218L73.984 80.848Z" fill="#1E00FF" mask="url(#path-1-outside-1_3_13)"/>
</g>
<g filter="url(#filter1_d_3_13)">
<mask id="path-3-outside-2_3_13" maskUnits="userSpaceOnUse" x="238" y="41" width="40" height="58" fill="black">
<rect fill="white" x="238" y="41" width="40" height="58"/>
<path d="M275.64 98H242.44L241.48 96.72L244.6 93.2V69.6H250.36V68.72H244.6V48.4H238.92V46.72H244.52L241.48 43.28L242.44 42H253.48L254.44 43.28L251.48 46.72H247.56V48.4H251.32V68.72H267.56V69.6H251.32V93.04L254.52 96.24H265.8C267.56 96.24 269.507 95.36 271.64 93.6C273.827 91.7867 275.453 89.5467 276.52 86.88L277.24 87.28L275.64 98Z"/>
</mask>
<path d="M275.64 98H242.44L241.48 96.72L244.6 93.2V69.6H250.36V68.72H244.6V48.4H238.92V46.72H244.52L241.48 43.28L242.44 42H253.48L254.44 43.28L251.48 46.72H247.56V48.4H251.32V68.72H267.56V69.6H251.32V93.04L254.52 96.24H265.8C267.56 96.24 269.507 95.36 271.64 93.6C273.827 91.7867 275.453 89.5467 276.52 86.88L277.24 87.28L275.64 98Z" fill="black"/>
<path d="M275.64 98V98.5H276.071L276.135 98.0738L275.64 98ZM242.44 98L242.04 98.3L242.19 98.5H242.44V98ZM241.48 96.72L241.106 96.3883L240.835 96.6936L241.08 97.02L241.48 96.72ZM244.6 93.2L244.974 93.5317L245.1 93.3897V93.2H244.6ZM244.6 69.6V69.1H244.1V69.6H244.6ZM250.36 69.6V70.1H250.86V69.6H250.36ZM250.36 68.72H250.86V68.22H250.36V68.72ZM244.6 68.72H244.1V69.22H244.6V68.72ZM244.6 48.4H245.1V47.9H244.6V48.4ZM238.92 48.4H238.42V48.9H238.92V48.4ZM238.92 46.72V46.22H238.42V46.72H238.92ZM244.52 46.72V47.22H245.629L244.895 46.3889L244.52 46.72ZM241.48 43.28L241.08 42.98L240.836 43.3059L241.105 43.6111L241.48 43.28ZM242.44 42V41.5H242.19L242.04 41.7L242.44 42ZM253.48 42L253.88 41.7L253.73 41.5H253.48V42ZM254.44 43.28L254.819 43.6061L255.081 43.3015L254.84 42.98L254.44 43.28ZM251.48 46.72V47.22H251.709L251.859 47.0461L251.48 46.72ZM247.56 46.72V46.22H247.06V46.72H247.56ZM247.56 48.4H247.06V48.9H247.56V48.4ZM251.32 48.4H251.82V47.9H251.32V48.4ZM251.32 68.72H250.82V69.22H251.32V68.72ZM267.56 68.72H268.06V68.22H267.56V68.72ZM267.56 69.6V70.1H268.06V69.6H267.56ZM251.32 69.6V69.1H250.82V69.6H251.32ZM251.32 93.04H250.82V93.2471L250.966 93.3936L251.32 93.04ZM254.52 96.24L254.166 96.5936L254.313 96.74H254.52V96.24ZM271.64 93.6L271.958 93.9857L271.959 93.9849L271.64 93.6ZM276.52 86.88L276.763 86.4429L276.267 86.1672L276.056 86.6943L276.52 86.88ZM277.24 87.28L277.735 87.3538L277.786 87.0112L277.483 86.8429L277.24 87.28ZM275.64 98V97.5H242.44V98V98.5H275.64V98ZM242.44 98L242.84 97.7L241.88 96.42L241.48 96.72L241.08 97.02L242.04 98.3L242.44 98ZM241.48 96.72L241.854 97.0517L244.974 93.5317L244.6 93.2L244.226 92.8683L241.106 96.3883L241.48 96.72ZM244.6 93.2H245.1V69.6H244.6H244.1V93.2H244.6ZM244.6 69.6V70.1H250.36V69.6V69.1H244.6V69.6ZM250.36 69.6H250.86V68.72H250.36H249.86V69.6H250.36ZM250.36 68.72V68.22H244.6V68.72V69.22H250.36V68.72ZM244.6 68.72H245.1V48.4H244.6H244.1V68.72H244.6ZM244.6 48.4V47.9H238.92V48.4V48.9H244.6V48.4ZM238.92 48.4H239.42V46.72H238.92H238.42V48.4H238.92ZM238.92 46.72V47.22H244.52V46.72V46.22H238.92V46.72ZM244.52 46.72L244.895 46.3889L241.855 42.9489L241.48 43.28L241.105 43.6111L244.145 47.0511L244.52 46.72ZM241.48 43.28L241.88 43.58L242.84 42.3L242.44 42L242.04 41.7L241.08 42.98L241.48 43.28ZM242.44 42V42.5H253.48V42V41.5H242.44V42ZM253.48 42L253.08 42.3L254.04 43.58L254.44 43.28L254.84 42.98L253.88 41.7L253.48 42ZM254.44 43.28L254.061 42.9539L251.101 46.3939L251.48 46.72L251.859 47.0461L254.819 43.6061L254.44 43.28ZM251.48 46.72V46.22H247.56V46.72V47.22H251.48V46.72ZM247.56 46.72H247.06V48.4H247.56H248.06V46.72H247.56ZM247.56 48.4V48.9H251.32V48.4V47.9H247.56V48.4ZM251.32 48.4H250.82V68.72H251.32H251.82V48.4H251.32ZM251.32 68.72V69.22H267.56V68.72V68.22H251.32V68.72ZM267.56 68.72H267.06V69.6H267.56H268.06V68.72H267.56ZM267.56 69.6V69.1H251.32V69.6V70.1H267.56V69.6ZM251.32 69.6H250.82V93.04H251.32H251.82V69.6H251.32ZM251.32 93.04L250.966 93.3936L254.166 96.5936L254.52 96.24L254.874 95.8864L251.674 92.6864L251.32 93.04ZM254.52 96.24V96.74H265.8V96.24V95.74H254.52V96.24ZM265.8 96.24V96.74C267.726 96.74 269.784 95.7797 271.958 93.9857L271.64 93.6L271.322 93.2143C269.23 94.9403 267.394 95.74 265.8 95.74V96.24ZM271.64 93.6L271.959 93.9849C274.211 92.1177 275.887 89.8089 276.984 87.0657L276.52 86.88L276.056 86.6943C275.02 89.2844 273.443 91.4557 271.321 93.2151L271.64 93.6ZM276.52 86.88L276.277 87.3171L276.997 87.7171L277.24 87.28L277.483 86.8429L276.763 86.4429L276.52 86.88ZM277.24 87.28L276.745 87.2062L275.145 97.9262L275.64 98L276.135 98.0738L277.735 87.3538L277.24 87.28Z" fill="#1E00FF" mask="url(#path-3-outside-2_3_13)"/>
</g>
<g filter="url(#filter2_d_3_13)">
<mask id="path-5-outside-3_3_13" maskUnits="userSpaceOnUse" x="75" y="41" width="51" height="58" fill="black">
<rect fill="white" x="75" y="41" width="51" height="58"/>
<path d="M125.44 49.68H118.64V48.4H125.44V49.68ZM119.12 98H86L85.04 96.72L88.16 93.2V87.52H75.6V86.24H88.16V55.2H93.76V54.32H88.16V46.8L85.04 43.28L86 42H118.88L117.76 48.4H113.76C111.787 44.9333 109.653 43.2 107.36 43.2H98L94.88 46.4V54.32H102.4V55.2H94.88V86.24H90.16V87.52H94.88V93.04L98.08 96.24H109.36C111.067 96.24 112.987 95.36 115.12 93.6C117.307 91.7867 118.96 89.5467 120.08 86.88L120.8 87.28L119.12 98ZM117.04 52.72H115.76L114.48 49.68H117.6L117.04 52.72ZM107.28 78.48L102.4 71.6L102.88 70.64H106.64V69.36H103.76L107.28 64L108.24 64.64V69.36H120.08V70.64H108.24V77.84L107.28 78.48Z"/>
</mask>
<path d="M125.44 49.68H118.64V48.4H125.44V49.68ZM119.12 98H86L85.04 96.72L88.16 93.2V87.52H75.6V86.24H88.16V55.2H93.76V54.32H88.16V46.8L85.04 43.28L86 42H118.88L117.76 48.4H113.76C111.787 44.9333 109.653 43.2 107.36 43.2H98L94.88 46.4V54.32H102.4V55.2H94.88V86.24H90.16V87.52H94.88V93.04L98.08 96.24H109.36C111.067 96.24 112.987 95.36 115.12 93.6C117.307 91.7867 118.96 89.5467 120.08 86.88L120.8 87.28L119.12 98ZM117.04 52.72H115.76L114.48 49.68H117.6L117.04 52.72ZM107.28 78.48L102.4 71.6L102.88 70.64H106.64V69.36H103.76L107.28 64L108.24 64.64V69.36H120.08V70.64H108.24V77.84L107.28 78.48Z" fill="black"/>
<path d="M125.44 49.68V50.18H125.94V49.68H125.44ZM118.64 49.68H118.14V50.18H118.64V49.68ZM118.64 48.4V47.9H118.14V48.4H118.64ZM125.44 48.4H125.94V47.9H125.44V48.4ZM119.12 98V98.5H119.548L119.614 98.0774L119.12 98ZM86 98L85.6 98.3L85.75 98.5H86V98ZM85.04 96.72L84.6658 96.3883L84.3952 96.6936L84.64 97.02L85.04 96.72ZM88.16 93.2L88.5342 93.5317L88.66 93.3897V93.2H88.16ZM88.16 87.52H88.66V87.02H88.16V87.52ZM75.6 87.52H75.1V88.02H75.6V87.52ZM75.6 86.24V85.74H75.1V86.24H75.6ZM88.16 86.24V86.74H88.66V86.24H88.16ZM88.16 55.2V54.7H87.66V55.2H88.16ZM93.76 55.2V55.7H94.26V55.2H93.76ZM93.76 54.32H94.26V53.82H93.76V54.32ZM88.16 54.32H87.66V54.82H88.16V54.32ZM88.16 46.8H88.66V46.6103L88.5342 46.4683L88.16 46.8ZM85.04 43.28L84.64 42.98L84.3952 43.3064L84.6658 43.6117L85.04 43.28ZM86 42V41.5H85.75L85.6 41.7L86 42ZM118.88 42L119.373 42.0862L119.475 41.5H118.88V42ZM117.76 48.4V48.9H118.18L118.253 48.4862L117.76 48.4ZM113.76 48.4L113.325 48.6473L113.469 48.9H113.76V48.4ZM98 43.2V42.7H97.7892L97.642 42.8509L98 43.2ZM94.88 46.4L94.522 46.0509L94.38 46.1966V46.4H94.88ZM94.88 54.32H94.38V54.82H94.88V54.32ZM102.4 54.32H102.9V53.82H102.4V54.32ZM102.4 55.2V55.7H102.9V55.2H102.4ZM94.88 55.2V54.7H94.38V55.2H94.88ZM94.88 86.24V86.74H95.38V86.24H94.88ZM90.16 86.24V85.74H89.66V86.24H90.16ZM90.16 87.52H89.66V88.02H90.16V87.52ZM94.88 87.52H95.38V87.02H94.88V87.52ZM94.88 93.04H94.38V93.2471L94.5264 93.3936L94.88 93.04ZM98.08 96.24L97.7264 96.5936L97.8729 96.74H98.08V96.24ZM115.12 93.6L115.438 93.9857L115.439 93.9849L115.12 93.6ZM120.08 86.88L120.323 86.4429L119.835 86.1719L119.619 86.6864L120.08 86.88ZM120.8 87.28L121.294 87.3574L121.348 87.0125L121.043 86.8429L120.8 87.28ZM117.04 52.72V53.22H117.456L117.532 52.8106L117.04 52.72ZM115.76 52.72L115.299 52.914L115.428 53.22H115.76V52.72ZM114.48 49.68V49.18H113.727L114.019 49.874L114.48 49.68ZM117.6 49.68L118.092 49.7706L118.201 49.18H117.6V49.68ZM107.28 78.48L106.872 78.7693L107.153 79.1655L107.557 78.896L107.28 78.48ZM102.4 71.6L101.953 71.3764L101.819 71.6446L101.992 71.8893L102.4 71.6ZM102.88 70.64V70.14H102.571L102.433 70.4164L102.88 70.64ZM106.64 70.64V71.14H107.14V70.64H106.64ZM106.64 69.36H107.14V68.86H106.64V69.36ZM103.76 69.36L103.342 69.0855L102.833 69.86H103.76V69.36ZM107.28 64L107.557 63.584L107.138 63.3047L106.862 63.7255L107.28 64ZM108.24 64.64H108.74V64.3724L108.517 64.224L108.24 64.64ZM108.24 69.36H107.74V69.86H108.24V69.36ZM120.08 69.36H120.58V68.86H120.08V69.36ZM120.08 70.64V71.14H120.58V70.64H120.08ZM108.24 70.64V70.14H107.74V70.64H108.24ZM108.24 77.84L108.517 78.256L108.74 78.1076V77.84H108.24ZM125.44 49.68V49.18H118.64V49.68V50.18H125.44V49.68ZM118.64 49.68H119.14V48.4H118.64H118.14V49.68H118.64ZM118.64 48.4V48.9H125.44V48.4V47.9H118.64V48.4ZM125.44 48.4H124.94V49.68H125.44H125.94V48.4H125.44ZM119.12 98V97.5H86V98V98.5H119.12V98ZM86 98L86.4 97.7L85.44 96.42L85.04 96.72L84.64 97.02L85.6 98.3L86 98ZM85.04 96.72L85.4142 97.0517L88.5342 93.5317L88.16 93.2L87.7858 92.8683L84.6658 96.3883L85.04 96.72ZM88.16 93.2H88.66V87.52H88.16H87.66V93.2H88.16ZM88.16 87.52V87.02H75.6V87.52V88.02H88.16V87.52ZM75.6 87.52H76.1V86.24H75.6H75.1V87.52H75.6ZM75.6 86.24V86.74H88.16V86.24V85.74H75.6V86.24ZM88.16 86.24H88.66V55.2H88.16H87.66V86.24H88.16ZM88.16 55.2V55.7H93.76V55.2V54.7H88.16V55.2ZM93.76 55.2H94.26V54.32H93.76H93.26V55.2H93.76ZM93.76 54.32V53.82H88.16V54.32V54.82H93.76V54.32ZM88.16 54.32H88.66V46.8H88.16H87.66V54.32H88.16ZM88.16 46.8L88.5342 46.4683L85.4142 42.9483L85.04 43.28L84.6658 43.6117L87.7858 47.1316L88.16 46.8ZM85.04 43.28L85.44 43.58L86.4 42.3L86 42L85.6 41.7L84.64 42.98L85.04 43.28ZM86 42V42.5H118.88V42V41.5H86V42ZM118.88 42L118.387 41.9138L117.267 48.3138L117.76 48.4L118.253 48.4862L119.373 42.0862L118.88 42ZM117.76 48.4V47.9H113.76V48.4V48.9H117.76V48.4ZM113.76 48.4L114.195 48.1527C112.199 44.6476 109.937 42.7 107.36 42.7V43.2V43.7C109.37 43.7 111.374 45.219 113.325 48.6473L113.76 48.4ZM107.36 43.2V42.7H98V43.2V43.7H107.36V43.2ZM98 43.2L97.642 42.8509L94.522 46.0509L94.88 46.4L95.238 46.749L98.358 43.549L98 43.2ZM94.88 46.4H94.38V54.32H94.88H95.38V46.4H94.88ZM94.88 54.32V54.82H102.4V54.32V53.82H94.88V54.32ZM102.4 54.32H101.9V55.2H102.4H102.9V54.32H102.4ZM102.4 55.2V54.7H94.88V55.2V55.7H102.4V55.2ZM94.88 55.2H94.38V86.24H94.88H95.38V55.2H94.88ZM94.88 86.24V85.74H90.16V86.24V86.74H94.88V86.24ZM90.16 86.24H89.66V87.52H90.16H90.66V86.24H90.16ZM90.16 87.52V88.02H94.88V87.52V87.02H90.16V87.52ZM94.88 87.52H94.38V93.04H94.88H95.38V87.52H94.88ZM94.88 93.04L94.5264 93.3936L97.7264 96.5936L98.08 96.24L98.4336 95.8864L95.2336 92.6864L94.88 93.04ZM98.08 96.24V96.74H109.36V96.24V95.74H98.08V96.24ZM109.36 96.24V96.74C111.236 96.74 113.267 95.7769 115.438 93.9857L115.12 93.6L114.802 93.2143C112.706 94.9431 110.898 95.74 109.36 95.74V96.24ZM115.12 93.6L115.439 93.9849C117.689 92.1192 119.39 89.8131 120.541 87.0736L120.08 86.88L119.619 86.6864C118.53 89.2802 116.924 91.4542 114.801 93.2151L115.12 93.6ZM120.08 86.88L119.837 87.3171L120.557 87.7171L120.8 87.28L121.043 86.8429L120.323 86.4429L120.08 86.88ZM120.8 87.28L120.306 87.2026L118.626 97.9226L119.12 98L119.614 98.0774L121.294 87.3574L120.8 87.28ZM117.04 52.72V52.22H115.76V52.72V53.22H117.04V52.72ZM115.76 52.72L116.221 52.526L114.941 49.486L114.48 49.68L114.019 49.874L115.299 52.914L115.76 52.72ZM114.48 49.68V50.18H117.6V49.68V49.18H114.48V49.68ZM117.6 49.68L117.108 49.5894L116.548 52.6294L117.04 52.72L117.532 52.8106L118.092 49.7706L117.6 49.68ZM107.28 78.48L107.688 78.1907L102.808 71.3107L102.4 71.6L101.992 71.8893L106.872 78.7693L107.28 78.48ZM102.4 71.6L102.847 71.8236L103.327 70.8636L102.88 70.64L102.433 70.4164L101.953 71.3764L102.4 71.6ZM102.88 70.64V71.14H106.64V70.64V70.14H102.88V70.64ZM106.64 70.64H107.14V69.36H106.64H106.14V70.64H106.64ZM106.64 69.36V68.86H103.76V69.36V69.86H106.64V69.36ZM103.76 69.36L104.178 69.6345L107.698 64.2745L107.28 64L106.862 63.7255L103.342 69.0855L103.76 69.36ZM107.28 64L107.003 64.416L107.963 65.056L108.24 64.64L108.517 64.224L107.557 63.584L107.28 64ZM108.24 64.64H107.74V69.36H108.24H108.74V64.64H108.24ZM108.24 69.36V69.86H120.08V69.36V68.86H108.24V69.36ZM120.08 69.36H119.58V70.64H120.08H120.58V69.36H120.08ZM120.08 70.64V70.14H108.24V70.64V71.14H120.08V70.64ZM108.24 70.64H107.74V77.84H108.24H108.74V70.64H108.24ZM108.24 77.84L107.963 77.424L107.003 78.064L107.28 78.48L107.557 78.896L108.517 78.256L108.24 77.84Z" fill="#1E00FF" mask="url(#path-5-outside-3_3_13)"/>
</g>
<g filter="url(#filter3_d_3_13)">
<mask id="path-7-outside-4_3_13" maskUnits="userSpaceOnUse" x="179" y="41" width="51" height="58" fill="black">
<rect fill="white" x="179" y="41" width="51" height="58"/>
<path d="M229.44 49.68H222.64V48.4H229.44V49.68ZM223.12 98H190L189.04 96.72L192.16 93.2V87.52H179.6V86.24H192.16V55.2H197.76V54.32H192.16V46.8L189.04 43.28L190 42H222.88L221.76 48.4H217.76C215.787 44.9333 213.653 43.2 211.36 43.2H202L198.88 46.4V54.32H206.4V55.2H198.88V86.24H194.16V87.52H198.88V93.04L202.08 96.24H213.36C215.067 96.24 216.987 95.36 219.12 93.6C221.307 91.7867 222.96 89.5467 224.08 86.88L224.8 87.28L223.12 98ZM221.04 52.72H219.76L218.48 49.68H221.6L221.04 52.72ZM211.28 78.48L206.4 71.6L206.88 70.64H210.64V69.36H207.76L211.28 64L212.24 64.64V69.36H224.08V70.64H212.24V77.84L211.28 78.48Z"/>
</mask>
<path d="M229.44 49.68H222.64V48.4H229.44V49.68ZM223.12 98H190L189.04 96.72L192.16 93.2V87.52H179.6V86.24H192.16V55.2H197.76V54.32H192.16V46.8L189.04 43.28L190 42H222.88L221.76 48.4H217.76C215.787 44.9333 213.653 43.2 211.36 43.2H202L198.88 46.4V54.32H206.4V55.2H198.88V86.24H194.16V87.52H198.88V93.04L202.08 96.24H213.36C215.067 96.24 216.987 95.36 219.12 93.6C221.307 91.7867 222.96 89.5467 224.08 86.88L224.8 87.28L223.12 98ZM221.04 52.72H219.76L218.48 49.68H221.6L221.04 52.72ZM211.28 78.48L206.4 71.6L206.88 70.64H210.64V69.36H207.76L211.28 64L212.24 64.64V69.36H224.08V70.64H212.24V77.84L211.28 78.48Z" fill="black"/>
<path d="M229.44 49.68V50.18H229.94V49.68H229.44ZM222.64 49.68H222.14V50.18H222.64V49.68ZM222.64 48.4V47.9H222.14V48.4H222.64ZM229.44 48.4H229.94V47.9H229.44V48.4ZM223.12 98V98.5H223.548L223.614 98.0774L223.12 98ZM190 98L189.6 98.3L189.75 98.5H190V98ZM189.04 96.72L188.666 96.3883L188.395 96.6936L188.64 97.02L189.04 96.72ZM192.16 93.2L192.534 93.5317L192.66 93.3897V93.2H192.16ZM192.16 87.52H192.66V87.02H192.16V87.52ZM179.6 87.52H179.1V88.02H179.6V87.52ZM179.6 86.24V85.74H179.1V86.24H179.6ZM192.16 86.24V86.74H192.66V86.24H192.16ZM192.16 55.2V54.7H191.66V55.2H192.16ZM197.76 55.2V55.7H198.26V55.2H197.76ZM197.76 54.32H198.26V53.82H197.76V54.32ZM192.16 54.32H191.66V54.82H192.16V54.32ZM192.16 46.8H192.66V46.6103L192.534 46.4683L192.16 46.8ZM189.04 43.28L188.64 42.98L188.395 43.3064L188.666 43.6117L189.04 43.28ZM190 42V41.5H189.75L189.6 41.7L190 42ZM222.88 42L223.373 42.0862L223.475 41.5H222.88V42ZM221.76 48.4V48.9H222.18L222.253 48.4862L221.76 48.4ZM217.76 48.4L217.325 48.6473L217.469 48.9H217.76V48.4ZM202 43.2V42.7H201.789L201.642 42.8509L202 43.2ZM198.88 46.4L198.522 46.0509L198.38 46.1966V46.4H198.88ZM198.88 54.32H198.38V54.82H198.88V54.32ZM206.4 54.32H206.9V53.82H206.4V54.32ZM206.4 55.2V55.7H206.9V55.2H206.4ZM198.88 55.2V54.7H198.38V55.2H198.88ZM198.88 86.24V86.74H199.38V86.24H198.88ZM194.16 86.24V85.74H193.66V86.24H194.16ZM194.16 87.52H193.66V88.02H194.16V87.52ZM198.88 87.52H199.38V87.02H198.88V87.52ZM198.88 93.04H198.38V93.2471L198.526 93.3936L198.88 93.04ZM202.08 96.24L201.726 96.5936L201.873 96.74H202.08V96.24ZM219.12 93.6L219.438 93.9857L219.439 93.9849L219.12 93.6ZM224.08 86.88L224.323 86.4429L223.835 86.1719L223.619 86.6864L224.08 86.88ZM224.8 87.28L225.294 87.3574L225.348 87.0125L225.043 86.8429L224.8 87.28ZM221.04 52.72V53.22H221.456L221.532 52.8106L221.04 52.72ZM219.76 52.72L219.299 52.914L219.428 53.22H219.76V52.72ZM218.48 49.68V49.18H217.727L218.019 49.874L218.48 49.68ZM221.6 49.68L222.092 49.7706L222.201 49.18H221.6V49.68ZM211.28 78.48L210.872 78.7693L211.153 79.1655L211.557 78.896L211.28 78.48ZM206.4 71.6L205.953 71.3764L205.819 71.6446L205.992 71.8893L206.4 71.6ZM206.88 70.64V70.14H206.571L206.433 70.4164L206.88 70.64ZM210.64 70.64V71.14H211.14V70.64H210.64ZM210.64 69.36H211.14V68.86H210.64V69.36ZM207.76 69.36L207.342 69.0855L206.833 69.86H207.76V69.36ZM211.28 64L211.557 63.584L211.138 63.3047L210.862 63.7255L211.28 64ZM212.24 64.64H212.74V64.3724L212.517 64.224L212.24 64.64ZM212.24 69.36H211.74V69.86H212.24V69.36ZM224.08 69.36H224.58V68.86H224.08V69.36ZM224.08 70.64V71.14H224.58V70.64H224.08ZM212.24 70.64V70.14H211.74V70.64H212.24ZM212.24 77.84L212.517 78.256L212.74 78.1076V77.84H212.24ZM229.44 49.68V49.18H222.64V49.68V50.18H229.44V49.68ZM222.64 49.68H223.14V48.4H222.64H222.14V49.68H222.64ZM222.64 48.4V48.9H229.44V48.4V47.9H222.64V48.4ZM229.44 48.4H228.94V49.68H229.44H229.94V48.4H229.44ZM223.12 98V97.5H190V98V98.5H223.12V98ZM190 98L190.4 97.7L189.44 96.42L189.04 96.72L188.64 97.02L189.6 98.3L190 98ZM189.04 96.72L189.414 97.0517L192.534 93.5317L192.16 93.2L191.786 92.8683L188.666 96.3883L189.04 96.72ZM192.16 93.2H192.66V87.52H192.16H191.66V93.2H192.16ZM192.16 87.52V87.02H179.6V87.52V88.02H192.16V87.52ZM179.6 87.52H180.1V86.24H179.6H179.1V87.52H179.6ZM179.6 86.24V86.74H192.16V86.24V85.74H179.6V86.24ZM192.16 86.24H192.66V55.2H192.16H191.66V86.24H192.16ZM192.16 55.2V55.7H197.76V55.2V54.7H192.16V55.2ZM197.76 55.2H198.26V54.32H197.76H197.26V55.2H197.76ZM197.76 54.32V53.82H192.16V54.32V54.82H197.76V54.32ZM192.16 54.32H192.66V46.8H192.16H191.66V54.32H192.16ZM192.16 46.8L192.534 46.4683L189.414 42.9483L189.04 43.28L188.666 43.6117L191.786 47.1316L192.16 46.8ZM189.04 43.28L189.44 43.58L190.4 42.3L190 42L189.6 41.7L188.64 42.98L189.04 43.28ZM190 42V42.5H222.88V42V41.5H190V42ZM222.88 42L222.387 41.9138L221.267 48.3138L221.76 48.4L222.253 48.4862L223.373 42.0862L222.88 42ZM221.76 48.4V47.9H217.76V48.4V48.9H221.76V48.4ZM217.76 48.4L218.195 48.1527C216.199 44.6476 213.937 42.7 211.36 42.7V43.2V43.7C213.37 43.7 215.374 45.219 217.325 48.6473L217.76 48.4ZM211.36 43.2V42.7H202V43.2V43.7H211.36V43.2ZM202 43.2L201.642 42.8509L198.522 46.0509L198.88 46.4L199.238 46.749L202.358 43.549L202 43.2ZM198.88 46.4H198.38V54.32H198.88H199.38V46.4H198.88ZM198.88 54.32V54.82H206.4V54.32V53.82H198.88V54.32ZM206.4 54.32H205.9V55.2H206.4H206.9V54.32H206.4ZM206.4 55.2V54.7H198.88V55.2V55.7H206.4V55.2ZM198.88 55.2H198.38V86.24H198.88H199.38V55.2H198.88ZM198.88 86.24V85.74H194.16V86.24V86.74H198.88V86.24ZM194.16 86.24H193.66V87.52H194.16H194.66V86.24H194.16ZM194.16 87.52V88.02H198.88V87.52V87.02H194.16V87.52ZM198.88 87.52H198.38V93.04H198.88H199.38V87.52H198.88ZM198.88 93.04L198.526 93.3936L201.726 96.5936L202.08 96.24L202.434 95.8864L199.234 92.6864L198.88 93.04ZM202.08 96.24V96.74H213.36V96.24V95.74H202.08V96.24ZM213.36 96.24V96.74C215.236 96.74 217.267 95.7769 219.438 93.9857L219.12 93.6L218.802 93.2143C216.706 94.9431 214.898 95.74 213.36 95.74V96.24ZM219.12 93.6L219.439 93.9849C221.689 92.1192 223.39 89.8131 224.541 87.0736L224.08 86.88L223.619 86.6864C222.53 89.2802 220.924 91.4542 218.801 93.2151L219.12 93.6ZM224.08 86.88L223.837 87.3171L224.557 87.7171L224.8 87.28L225.043 86.8429L224.323 86.4429L224.08 86.88ZM224.8 87.28L224.306 87.2026L222.626 97.9226L223.12 98L223.614 98.0774L225.294 87.3574L224.8 87.28ZM221.04 52.72V52.22H219.76V52.72V53.22H221.04V52.72ZM219.76 52.72L220.221 52.526L218.941 49.486L218.48 49.68L218.019 49.874L219.299 52.914L219.76 52.72ZM218.48 49.68V50.18H221.6V49.68V49.18H218.48V49.68ZM221.6 49.68L221.108 49.5894L220.548 52.6294L221.04 52.72L221.532 52.8106L222.092 49.7706L221.6 49.68ZM211.28 78.48L211.688 78.1907L206.808 71.3107L206.4 71.6L205.992 71.8893L210.872 78.7693L211.28 78.48ZM206.4 71.6L206.847 71.8236L207.327 70.8636L206.88 70.64L206.433 70.4164L205.953 71.3764L206.4 71.6ZM206.88 70.64V71.14H210.64V70.64V70.14H206.88V70.64ZM210.64 70.64H211.14V69.36H210.64H210.14V70.64H210.64ZM210.64 69.36V68.86H207.76V69.36V69.86H210.64V69.36ZM207.76 69.36L208.178 69.6345L211.698 64.2745L211.28 64L210.862 63.7255L207.342 69.0855L207.76 69.36ZM211.28 64L211.003 64.416L211.963 65.056L212.24 64.64L212.517 64.224L211.557 63.584L211.28 64ZM212.24 64.64H211.74V69.36H212.24H212.74V64.64H212.24ZM212.24 69.36V69.86H224.08V69.36V68.86H212.24V69.36ZM224.08 69.36H223.58V70.64H224.08H224.58V69.36H224.08ZM224.08 70.64V70.14H212.24V70.64V71.14H224.08V70.64ZM212.24 70.64H211.74V77.84H212.24H212.74V70.64H212.24ZM212.24 77.84L211.963 77.424L211.003 78.064L211.28 78.48L211.557 78.896L212.517 78.256L212.24 77.84Z" fill="#1E00FF" mask="url(#path-7-outside-4_3_13)"/>
</g>
<g filter="url(#filter4_d_3_13)">
<mask id="path-9-outside-5_3_13" maskUnits="userSpaceOnUse" x="121" y="41" width="59" height="58" fill="black">
<rect fill="white" x="121" y="41" width="59" height="58"/>
<path d="M159.36 98.48H154.64L147.84 78H152.88V76.72H147.44L141.52 58.88H122.08V57.6H141.04L137.6 47.28L134.56 43.28L135.52 42H146.4L147.36 43.28L145.2 47.12L148.56 57.6H143.12V58.88H148.96L154.56 76.72H164.32L170.08 58.88H165.6V57.6H170.48L173.76 47.28L169.52 43.28L170.48 42H178.16L179.12 43.2L175.36 47.68L172.24 57.6H172.32V58.88H171.84L166.24 76.72H170.64V78H165.84L159.36 98.48ZM159.36 92.16L163.92 78H154.96L159.36 92.16Z"/>
</mask>
<path d="M159.36 98.48H154.64L147.84 78H152.88V76.72H147.44L141.52 58.88H122.08V57.6H141.04L137.6 47.28L134.56 43.28L135.52 42H146.4L147.36 43.28L145.2 47.12L148.56 57.6H143.12V58.88H148.96L154.56 76.72H164.32L170.08 58.88H165.6V57.6H170.48L173.76 47.28L169.52 43.28L170.48 42H178.16L179.12 43.2L175.36 47.68L172.24 57.6H172.32V58.88H171.84L166.24 76.72H170.64V78H165.84L159.36 98.48ZM159.36 92.16L163.92 78H154.96L159.36 92.16Z" fill="black"/>
<path d="M159.36 98.48V98.98H159.726L159.837 98.6308L159.36 98.48ZM154.64 98.48L154.165 98.6376L154.279 98.98H154.64V98.48ZM147.84 78V77.5H147.147L147.365 78.1576L147.84 78ZM152.88 78V78.5H153.38V78H152.88ZM152.88 76.72H153.38V76.22H152.88V76.72ZM147.44 76.72L146.965 76.8775L147.079 77.22H147.44V76.72ZM141.52 58.88L141.995 58.7225L141.881 58.38H141.52V58.88ZM122.08 58.88H121.58V59.38H122.08V58.88ZM122.08 57.6V57.1H121.58V57.6H122.08ZM141.04 57.6V58.1H141.734L141.514 57.4419L141.04 57.6ZM137.6 47.28L138.074 47.1219L138.048 47.0434L137.998 46.9775L137.6 47.28ZM134.56 43.28L134.16 42.98L133.934 43.282L134.162 43.5825L134.56 43.28ZM135.52 42V41.5H135.27L135.12 41.7L135.52 42ZM146.4 42L146.8 41.7L146.65 41.5H146.4V42ZM147.36 43.28L147.796 43.5251L147.956 43.2409L147.76 42.98L147.36 43.28ZM145.2 47.12L144.764 46.8749L144.657 47.065L144.724 47.2726L145.2 47.12ZM148.56 57.6V58.1H149.245L149.036 57.4473L148.56 57.6ZM143.12 57.6V57.1H142.62V57.6H143.12ZM143.12 58.88H142.62V59.38H143.12V58.88ZM148.96 58.88L149.437 58.7303L149.327 58.38H148.96V58.88ZM154.56 76.72L154.083 76.8697L154.193 77.22H154.56V76.72ZM164.32 76.72V77.22H164.684L164.796 76.8736L164.32 76.72ZM170.08 58.88L170.556 59.0336L170.767 58.38H170.08V58.88ZM165.6 58.88H165.1V59.38H165.6V58.88ZM165.6 57.6V57.1H165.1V57.6H165.6ZM170.48 57.6V58.1H170.846L170.957 57.7514L170.48 57.6ZM173.76 47.28L174.237 47.4314L174.332 47.132L174.103 46.9163L173.76 47.28ZM169.52 43.28L169.12 42.98L168.852 43.3373L169.177 43.6437L169.52 43.28ZM170.48 42V41.5H170.23L170.08 41.7L170.48 42ZM178.16 42L178.55 41.6876L178.4 41.5H178.16V42ZM179.12 43.2L179.503 43.5214L179.766 43.2076L179.51 42.8876L179.12 43.2ZM175.36 47.68L174.977 47.3586L174.913 47.4349L174.883 47.53L175.36 47.68ZM172.24 57.6L171.763 57.45L171.559 58.1H172.24V57.6ZM172.32 57.6H172.82V57.1H172.32V57.6ZM172.32 58.88V59.38H172.82V58.88H172.32ZM171.84 58.88V58.38H171.473L171.363 58.7303L171.84 58.88ZM166.24 76.72L165.763 76.5703L165.559 77.22H166.24V76.72ZM170.64 76.72H171.14V76.22H170.64V76.72ZM170.64 78V78.5H171.14V78H170.64ZM165.84 78V77.5H165.474L165.363 77.8492L165.84 78ZM159.36 92.16L158.883 92.3084L159.351 93.8176L159.836 92.3133L159.36 92.16ZM163.92 78L164.396 78.1533L164.606 77.5H163.92V78ZM154.96 78V77.5H154.281L154.483 78.1484L154.96 78ZM159.36 98.48V97.98H154.64V98.48V98.98H159.36V98.48ZM154.64 98.48L155.115 98.3224L148.315 77.8424L147.84 78L147.365 78.1576L154.165 98.6376L154.64 98.48ZM147.84 78V78.5H152.88V78V77.5H147.84V78ZM152.88 78H153.38V76.72H152.88H152.38V78H152.88ZM152.88 76.72V76.22H147.44V76.72V77.22H152.88V76.72ZM147.44 76.72L147.915 76.5625L141.995 58.7225L141.52 58.88L141.045 59.0375L146.965 76.8775L147.44 76.72ZM141.52 58.88V58.38H122.08V58.88V59.38H141.52V58.88ZM122.08 58.88H122.58V57.6H122.08H121.58V58.88H122.08ZM122.08 57.6V58.1H141.04V57.6V57.1H122.08V57.6ZM141.04 57.6L141.514 57.4419L138.074 47.1219L137.6 47.28L137.126 47.4381L140.566 57.7581L141.04 57.6ZM137.6 47.28L137.998 46.9775L134.958 42.9775L134.56 43.28L134.162 43.5825L137.202 47.5825L137.6 47.28ZM134.56 43.28L134.96 43.58L135.92 42.3L135.52 42L135.12 41.7L134.16 42.98L134.56 43.28ZM135.52 42V42.5H146.4V42V41.5H135.52V42ZM146.4 42L146 42.3L146.96 43.58L147.36 43.28L147.76 42.98L146.8 41.7L146.4 42ZM147.36 43.28L146.924 43.0349L144.764 46.8749L145.2 47.12L145.636 47.3651L147.796 43.5251L147.36 43.28ZM145.2 47.12L144.724 47.2726L148.084 57.7527L148.56 57.6L149.036 57.4473L145.676 46.9673L145.2 47.12ZM148.56 57.6V57.1H143.12V57.6V58.1H148.56V57.6ZM143.12 57.6H142.62V58.88H143.12H143.62V57.6H143.12ZM143.12 58.88V59.38H148.96V58.88V58.38H143.12V58.88ZM148.96 58.88L148.483 59.0297L154.083 76.8697L154.56 76.72L155.037 76.5703L149.437 58.7303L148.96 58.88ZM154.56 76.72V77.22H164.32V76.72V76.22H154.56V76.72ZM164.32 76.72L164.796 76.8736L170.556 59.0336L170.08 58.88L169.604 58.7264L163.844 76.5664L164.32 76.72ZM170.08 58.88V58.38H165.6V58.88V59.38H170.08V58.88ZM165.6 58.88H166.1V57.6H165.6H165.1V58.88H165.6ZM165.6 57.6V58.1H170.48V57.6V57.1H165.6V57.6ZM170.48 57.6L170.957 57.7514L174.237 47.4314L173.76 47.28L173.283 47.1286L170.003 57.4486L170.48 57.6ZM173.76 47.28L174.103 46.9163L169.863 42.9163L169.52 43.28L169.177 43.6437L173.417 47.6437L173.76 47.28ZM169.52 43.28L169.92 43.58L170.88 42.3L170.48 42L170.08 41.7L169.12 42.98L169.52 43.28ZM170.48 42V42.5H178.16V42V41.5H170.48V42ZM178.16 42L177.77 42.3123L178.73 43.5123L179.12 43.2L179.51 42.8876L178.55 41.6876L178.16 42ZM179.12 43.2L178.737 42.8786L174.977 47.3586L175.36 47.68L175.743 48.0014L179.503 43.5214L179.12 43.2ZM175.36 47.68L174.883 47.53L171.763 57.45L172.24 57.6L172.717 57.75L175.837 47.83L175.36 47.68ZM172.24 57.6V58.1H172.32V57.6V57.1H172.24V57.6ZM172.32 57.6H171.82V58.88H172.32H172.82V57.6H172.32ZM172.32 58.88V58.38H171.84V58.88V59.38H172.32V58.88ZM171.84 58.88L171.363 58.7303L165.763 76.5703L166.24 76.72L166.717 76.8697L172.317 59.0297L171.84 58.88ZM166.24 76.72V77.22H170.64V76.72V76.22H166.24V76.72ZM170.64 76.72H170.14V78H170.64H171.14V76.72H170.64ZM170.64 78V77.5H165.84V78V78.5H170.64V78ZM165.84 78L165.363 77.8492L158.883 98.3292L159.36 98.48L159.837 98.6308L166.317 78.1508L165.84 78ZM159.36 92.16L159.836 92.3133L164.396 78.1533L163.92 78L163.444 77.8467L158.884 92.0067L159.36 92.16ZM163.92 78V77.5H154.96V78V78.5H163.92V78ZM154.96 78L154.483 78.1484L158.883 92.3084L159.36 92.16L159.837 92.0116L155.437 77.8516L154.96 78Z" fill="#1E00FF" mask="url(#path-9-outside-5_3_13)"/>
</g>
<g filter="url(#filter5_d_3_13)">
<mask id="path-11-outside-6_3_13" maskUnits="userSpaceOnUse" x="293" y="7" width="70" height="94" fill="black">
<rect fill="white" x="293" y="7" width="70" height="94"/>
<path d="M322.88 100.048C315.797 100.048 309.739 97.872 304.704 93.52C299.669 89.0827 297.152 83.024 297.152 75.344V50.64H298.688V33.104H306.24V32.08H298.688V16.08L293.824 10.448L295.36 8.39999H312.896L314.432 10.448L309.568 16.08V32.08H326.208V33.104H309.568V50.64H308.032V78.544C308.032 84.3467 309.867 88.784 313.536 91.856C317.205 94.928 321.728 96.464 327.104 96.464C332.395 96.464 336.96 94.7573 340.8 91.344C344.725 87.8453 346.688 83.152 346.688 77.264V66.64H333.504V63.184H346.688V59.856H348.096V58.576H346.688V50.64H348.224V17.744L341.44 10.192L342.848 8.39999H355.648L356.928 10.192L350.016 17.616V50.64H348.48V58.576H361.792V59.856H348.48V63.184H347.2V66.64H348.48V77.904C348.48 84.9867 345.963 90.448 340.928 94.288C335.979 98.128 329.963 100.048 322.88 100.048Z"/>
</mask>
<path d="M322.88 100.048C315.797 100.048 309.739 97.872 304.704 93.52C299.669 89.0827 297.152 83.024 297.152 75.344V50.64H298.688V33.104H306.24V32.08H298.688V16.08L293.824 10.448L295.36 8.39999H312.896L314.432 10.448L309.568 16.08V32.08H326.208V33.104H309.568V50.64H308.032V78.544C308.032 84.3467 309.867 88.784 313.536 91.856C317.205 94.928 321.728 96.464 327.104 96.464C332.395 96.464 336.96 94.7573 340.8 91.344C344.725 87.8453 346.688 83.152 346.688 77.264V66.64H333.504V63.184H346.688V59.856H348.096V58.576H346.688V50.64H348.224V17.744L341.44 10.192L342.848 8.39999H355.648L356.928 10.192L350.016 17.616V50.64H348.48V58.576H361.792V59.856H348.48V63.184H347.2V66.64H348.48V77.904C348.48 84.9867 345.963 90.448 340.928 94.288C335.979 98.128 329.963 100.048 322.88 100.048Z" fill="black"/>
<path d="M304.704 93.52L304.373 93.8951L304.377 93.8983L304.704 93.52ZM297.152 50.64V50.14H296.652V50.64H297.152ZM298.688 50.64V51.14H299.188V50.64H298.688ZM298.688 33.104V32.604H298.188V33.104H298.688ZM306.24 33.104V33.604H306.74V33.104H306.24ZM306.24 32.08H306.74V31.58H306.24V32.08ZM298.688 32.08H298.188V32.58H298.688V32.08ZM298.688 16.08H299.188V15.894L299.066 15.7532L298.688 16.08ZM293.824 10.448L293.424 10.148L293.182 10.4701L293.446 10.7748L293.824 10.448ZM295.36 8.39999V7.89999H295.11L294.96 8.09999L295.36 8.39999ZM312.896 8.39999L313.296 8.09999L313.146 7.89999H312.896V8.39999ZM314.432 10.448L314.81 10.7748L315.074 10.4701L314.832 10.148L314.432 10.448ZM309.568 16.08L309.19 15.7532L309.068 15.894V16.08H309.568ZM309.568 32.08H309.068V32.58H309.568V32.08ZM326.208 32.08H326.708V31.58H326.208V32.08ZM326.208 33.104V33.604H326.708V33.104H326.208ZM309.568 33.104V32.604H309.068V33.104H309.568ZM309.568 50.64V51.14H310.068V50.64H309.568ZM308.032 50.64V50.14H307.532V50.64H308.032ZM313.536 91.856L313.857 91.4726L313.536 91.856ZM340.8 91.344L341.132 91.7177L341.133 91.7173L340.8 91.344ZM346.688 66.64H347.188V66.14H346.688V66.64ZM333.504 66.64H333.004V67.14H333.504V66.64ZM333.504 63.184V62.684H333.004V63.184H333.504ZM346.688 63.184V63.684H347.188V63.184H346.688ZM346.688 59.856V59.356H346.188V59.856H346.688ZM348.096 59.856V60.356H348.596V59.856H348.096ZM348.096 58.576H348.596V58.076H348.096V58.576ZM346.688 58.576H346.188V59.076H346.688V58.576ZM346.688 50.64V50.14H346.188V50.64H346.688ZM348.224 50.64V51.14H348.724V50.64H348.224ZM348.224 17.744H348.724V17.5524L348.596 17.4099L348.224 17.744ZM341.44 10.192L341.047 9.88308L340.787 10.2135L341.068 10.5261L341.44 10.192ZM342.848 8.39999V7.89999H342.605L342.455 8.09108L342.848 8.39999ZM355.648 8.39999L356.055 8.10938L355.905 7.89999H355.648V8.39999ZM356.928 10.192L357.294 10.5327L357.572 10.2338L357.335 9.90137L356.928 10.192ZM350.016 17.616L349.65 17.2753L349.516 17.4193V17.616H350.016ZM350.016 50.64V51.14H350.516V50.64H350.016ZM348.48 50.64V50.14H347.98V50.64H348.48ZM348.48 58.576H347.98V59.076H348.48V58.576ZM361.792 58.576H362.292V58.076H361.792V58.576ZM361.792 59.856V60.356H362.292V59.856H361.792ZM348.48 59.856V59.356H347.98V59.856H348.48ZM348.48 63.184V63.684H348.98V63.184H348.48ZM347.2 63.184V62.684H346.7V63.184H347.2ZM347.2 66.64H346.7V67.14H347.2V66.64ZM348.48 66.64H348.98V66.14H348.48V66.64ZM340.928 94.288L340.625 93.8904L340.622 93.893L340.928 94.288ZM322.88 100.048V99.548C315.909 99.548 309.969 97.4099 305.031 93.1417L304.704 93.52L304.377 93.8983C309.509 98.3341 315.686 100.548 322.88 100.548V100.048ZM304.704 93.52L305.035 93.1449C300.124 88.8167 297.652 82.9034 297.652 75.344H297.152H296.652C296.652 83.1446 299.215 89.3486 304.373 93.8951L304.704 93.52ZM297.152 75.344H297.652V50.64H297.152H296.652V75.344H297.152ZM297.152 50.64V51.14H298.688V50.64V50.14H297.152V50.64ZM298.688 50.64H299.188V33.104H298.688H298.188V50.64H298.688ZM298.688 33.104V33.604H306.24V33.104V32.604H298.688V33.104ZM306.24 33.104H306.74V32.08H306.24H305.74V33.104H306.24ZM306.24 32.08V31.58H298.688V32.08V32.58H306.24V32.08ZM298.688 32.08H299.188V16.08H298.688H298.188V32.08H298.688ZM298.688 16.08L299.066 15.7532L294.202 10.1212L293.824 10.448L293.446 10.7748L298.31 16.4068L298.688 16.08ZM293.824 10.448L294.224 10.748L295.76 8.69999L295.36 8.39999L294.96 8.09999L293.424 10.148L293.824 10.448ZM295.36 8.39999V8.89999H312.896V8.39999V7.89999H295.36V8.39999ZM312.896 8.39999L312.496 8.69999L314.032 10.748L314.432 10.448L314.832 10.148L313.296 8.09999L312.896 8.39999ZM314.432 10.448L314.054 10.1212L309.19 15.7532L309.568 16.08L309.946 16.4068L314.81 10.7748L314.432 10.448ZM309.568 16.08H309.068V32.08H309.568H310.068V16.08H309.568ZM309.568 32.08V32.58H326.208V32.08V31.58H309.568V32.08ZM326.208 32.08H325.708V33.104H326.208H326.708V32.08H326.208ZM326.208 33.104V32.604H309.568V33.104V33.604H326.208V33.104ZM309.568 33.104H309.068V50.64H309.568H310.068V33.104H309.568ZM309.568 50.64V50.14H308.032V50.64V51.14H309.568V50.64ZM308.032 50.64H307.532V78.544H308.032H308.532V50.64H308.032ZM308.032 78.544H307.532C307.532 84.4601 309.408 89.0522 313.215 92.2394L313.536 91.856L313.857 91.4726C310.325 88.5158 308.532 84.2332 308.532 78.544H308.032ZM313.536 91.856L313.215 92.2394C316.986 95.396 321.626 96.964 327.104 96.964V96.464V95.964C321.83 95.964 317.425 94.46 313.857 91.4726L313.536 91.856ZM327.104 96.464V96.964C332.513 96.964 337.198 95.215 341.132 91.7177L340.8 91.344L340.468 90.9703C336.722 94.2997 332.276 95.964 327.104 95.964V96.464ZM340.8 91.344L341.133 91.7173C345.178 88.1118 347.188 83.2756 347.188 77.264H346.688H346.188C346.188 83.0284 344.273 87.5789 340.467 90.9707L340.8 91.344ZM346.688 77.264H347.188V66.64H346.688H346.188V77.264H346.688ZM346.688 66.64V66.14H333.504V66.64V67.14H346.688V66.64ZM333.504 66.64H334.004V63.184H333.504H333.004V66.64H333.504ZM333.504 63.184V63.684H346.688V63.184V62.684H333.504V63.184ZM346.688 63.184H347.188V59.856H346.688H346.188V63.184H346.688ZM346.688 59.856V60.356H348.096V59.856V59.356H346.688V59.856ZM348.096 59.856H348.596V58.576H348.096H347.596V59.856H348.096ZM348.096 58.576V58.076H346.688V58.576V59.076H348.096V58.576ZM346.688 58.576H347.188V50.64H346.688H346.188V58.576H346.688ZM346.688 50.64V51.14H348.224V50.64V50.14H346.688V50.64ZM348.224 50.64H348.724V17.744H348.224H347.724V50.64H348.224ZM348.224 17.744L348.596 17.4099L341.812 9.85786L341.44 10.192L341.068 10.5261L347.852 18.0781L348.224 17.744ZM341.44 10.192L341.833 10.5009L343.241 8.70891L342.848 8.39999L342.455 8.09108L341.047 9.88308L341.44 10.192ZM342.848 8.39999V8.89999H355.648V8.39999V7.89999H342.848V8.39999ZM355.648 8.39999L355.241 8.69061L356.521 10.4826L356.928 10.192L357.335 9.90137L356.055 8.10938L355.648 8.39999ZM356.928 10.192L356.562 9.85128L349.65 17.2753L350.016 17.616L350.382 17.9567L357.294 10.5327L356.928 10.192ZM350.016 17.616H349.516V50.64H350.016H350.516V17.616H350.016ZM350.016 50.64V50.14H348.48V50.64V51.14H350.016V50.64ZM348.48 50.64H347.98V58.576H348.48H348.98V50.64H348.48ZM348.48 58.576V59.076H361.792V58.576V58.076H348.48V58.576ZM361.792 58.576H361.292V59.856H361.792H362.292V58.576H361.792ZM361.792 59.856V59.356H348.48V59.856V60.356H361.792V59.856ZM348.48 59.856H347.98V63.184H348.48H348.98V59.856H348.48ZM348.48 63.184V62.684H347.2V63.184V63.684H348.48V63.184ZM347.2 63.184H346.7V66.64H347.2H347.7V63.184H347.2ZM347.2 66.64V67.14H348.48V66.64V66.14H347.2V66.64ZM348.48 66.64H347.98V77.904H348.48H348.98V66.64H348.48ZM348.48 77.904H347.98C347.98 84.8519 345.52 90.1572 340.625 93.8904L340.928 94.288L341.231 94.6856C346.406 90.7388 348.98 85.1215 348.98 77.904H348.48ZM340.928 94.288L340.622 93.893C335.771 97.6561 329.867 99.548 322.88 99.548V100.048V100.548C330.058 100.548 336.186 98.5999 341.235 94.683L340.928 94.288Z" fill="#1E00FF" mask="url(#path-11-outside-6_3_13)"/>
</g>
<g filter="url(#filter6_d_3_13)">
<mask id="path-13-outside-7_3_13" maskUnits="userSpaceOnUse" x="379" y="41" width="45" height="58" fill="black">
<rect fill="white" x="379" y="41" width="45" height="58"/>
<path d="M396.96 98H386L385.04 96.72L388.08 93.2V83.2H390.24V82.32H385.84V53.36H391.28V52.56H385.84V50.64H379.6V48.88H385.84V46.8L382.72 43.28L383.68 42H399.76C408.24 42 414.4 44.2933 418.24 48.88H423.44V50.64H419.44C420.507 52.5067 421.04 54.5333 421.04 56.72C421.04 61.52 419.093 65.28 415.2 68C411.36 70.72 406.213 72.08 399.76 72.08H392.56V82.32H398.8V83.2H394.88V93.2L397.92 96.72L396.96 98ZM399.76 70.72C403.867 70.72 407.2 69.4667 409.76 66.96C412.32 64.4533 413.6 61.1467 413.6 57.04C413.6 54.64 413.147 52.5067 412.24 50.64H414.88V48.88H411.2C408.64 45.2 404.827 43.36 399.76 43.36H395.28L392.56 46.16V48.88H388.16V50.64H392.56V52.56H399.92V53.36H392.56V70.72H399.76Z"/>
</mask>
<path d="M396.96 98H386L385.04 96.72L388.08 93.2V83.2H390.24V82.32H385.84V53.36H391.28V52.56H385.84V50.64H379.6V48.88H385.84V46.8L382.72 43.28L383.68 42H399.76C408.24 42 414.4 44.2933 418.24 48.88H423.44V50.64H419.44C420.507 52.5067 421.04 54.5333 421.04 56.72C421.04 61.52 419.093 65.28 415.2 68C411.36 70.72 406.213 72.08 399.76 72.08H392.56V82.32H398.8V83.2H394.88V93.2L397.92 96.72L396.96 98ZM399.76 70.72C403.867 70.72 407.2 69.4667 409.76 66.96C412.32 64.4533 413.6 61.1467 413.6 57.04C413.6 54.64 413.147 52.5067 412.24 50.64H414.88V48.88H411.2C408.64 45.2 404.827 43.36 399.76 43.36H395.28L392.56 46.16V48.88H388.16V50.64H392.56V52.56H399.92V53.36H392.56V70.72H399.76Z" fill="black"/>
<path d="M396.96 98V98.5H397.21L397.36 98.3L396.96 98ZM386 98L385.6 98.3L385.75 98.5H386V98ZM385.04 96.72L384.662 96.3932L384.398 96.6979L384.64 97.02L385.04 96.72ZM388.08 93.2L388.458 93.5268L388.58 93.386V93.2H388.08ZM388.08 83.2V82.7H387.58V83.2H388.08ZM390.24 83.2V83.7H390.74V83.2H390.24ZM390.24 82.32H390.74V81.82H390.24V82.32ZM385.84 82.32H385.34V82.82H385.84V82.32ZM385.84 53.36V52.86H385.34V53.36H385.84ZM391.28 53.36V53.86H391.78V53.36H391.28ZM391.28 52.56H391.78V52.06H391.28V52.56ZM385.84 52.56H385.34V53.06H385.84V52.56ZM385.84 50.64H386.34V50.14H385.84V50.64ZM379.6 50.64H379.1V51.14H379.6V50.64ZM379.6 48.88V48.38H379.1V48.88H379.6ZM385.84 48.88V49.38H386.34V48.88H385.84ZM385.84 46.8H386.34V46.6103L386.214 46.4683L385.84 46.8ZM382.72 43.28L382.32 42.98L382.075 43.3064L382.346 43.6117L382.72 43.28ZM383.68 42V41.5H383.43L383.28 41.7L383.68 42ZM418.24 48.88L417.857 49.201L418.007 49.38H418.24V48.88ZM423.44 48.88H423.94V48.38H423.44V48.88ZM423.44 50.64V51.14H423.94V50.64H423.44ZM419.44 50.64V50.14H418.578L419.006 50.8881L419.44 50.64ZM415.2 68L414.914 67.5901L414.911 67.592L415.2 68ZM392.56 72.08V71.58H392.06V72.08H392.56ZM392.56 82.32H392.06V82.82H392.56V82.32ZM398.8 82.32H399.3V81.82H398.8V82.32ZM398.8 83.2V83.7H399.3V83.2H398.8ZM394.88 83.2V82.7H394.38V83.2H394.88ZM394.88 93.2H394.38V93.386L394.502 93.5268L394.88 93.2ZM397.92 96.72L398.32 97.02L398.562 96.6979L398.298 96.3932L397.92 96.72ZM409.76 66.96L410.11 67.3173L409.76 66.96ZM412.24 50.64V50.14H411.441L411.79 50.8585L412.24 50.64ZM414.88 50.64V51.14H415.38V50.64H414.88ZM414.88 48.88H415.38V48.38H414.88V48.88ZM411.2 48.88L410.79 49.1655L410.939 49.38H411.2V48.88ZM395.28 43.36V42.86H395.069L394.921 43.0116L395.28 43.36ZM392.56 46.16L392.201 45.8116L392.06 45.9571V46.16H392.56ZM392.56 48.88V49.38H393.06V48.88H392.56ZM388.16 48.88V48.38H387.66V48.88H388.16ZM388.16 50.64H387.66V51.14H388.16V50.64ZM392.56 50.64H393.06V50.14H392.56V50.64ZM392.56 52.56H392.06V53.06H392.56V52.56ZM399.92 52.56H400.42V52.06H399.92V52.56ZM399.92 53.36V53.86H400.42V53.36H399.92ZM392.56 53.36V52.86H392.06V53.36H392.56ZM392.56 70.72H392.06V71.22H392.56V70.72ZM396.96 98V97.5H386V98V98.5H396.96V98ZM386 98L386.4 97.7L385.44 96.42L385.04 96.72L384.64 97.02L385.6 98.3L386 98ZM385.04 96.72L385.418 97.0468L388.458 93.5268L388.08 93.2L387.702 92.8732L384.662 96.3932L385.04 96.72ZM388.08 93.2H388.58V83.2H388.08H387.58V93.2H388.08ZM388.08 83.2V83.7H390.24V83.2V82.7H388.08V83.2ZM390.24 83.2H390.74V82.32H390.24H389.74V83.2H390.24ZM390.24 82.32V81.82H385.84V82.32V82.82H390.24V82.32ZM385.84 82.32H386.34V53.36H385.84H385.34V82.32H385.84ZM385.84 53.36V53.86H391.28V53.36V52.86H385.84V53.36ZM391.28 53.36H391.78V52.56H391.28H390.78V53.36H391.28ZM391.28 52.56V52.06H385.84V52.56V53.06H391.28V52.56ZM385.84 52.56H386.34V50.64H385.84H385.34V52.56H385.84ZM385.84 50.64V50.14H379.6V50.64V51.14H385.84V50.64ZM379.6 50.64H380.1V48.88H379.6H379.1V50.64H379.6ZM379.6 48.88V49.38H385.84V48.88V48.38H379.6V48.88ZM385.84 48.88H386.34V46.8H385.84H385.34V48.88H385.84ZM385.84 46.8L386.214 46.4683L383.094 42.9483L382.72 43.28L382.346 43.6117L385.466 47.1316L385.84 46.8ZM382.72 43.28L383.12 43.58L384.08 42.3L383.68 42L383.28 41.7L382.32 42.98L382.72 43.28ZM383.68 42V42.5H399.76V42V41.5H383.68V42ZM399.76 42V42.5C408.156 42.5 414.146 44.7692 417.857 49.201L418.24 48.88L418.623 48.559C414.654 43.8174 408.324 41.5 399.76 41.5V42ZM418.24 48.88V49.38H423.44V48.88V48.38H418.24V48.88ZM423.44 48.88H422.94V50.64H423.44H423.94V48.88H423.44ZM423.44 50.64V50.14H419.44V50.64V51.14H423.44V50.64ZM419.44 50.64L419.006 50.8881C420.029 52.6778 420.54 54.6188 420.54 56.72H421.04H421.54C421.54 54.4479 420.985 52.3355 419.874 50.3919L419.44 50.64ZM421.04 56.72H420.54C420.54 61.3588 418.671 64.9648 414.914 67.5901L415.2 68L415.486 68.4099C419.515 65.5952 421.54 61.6812 421.54 56.72H421.04ZM415.2 68L414.911 67.592C411.182 70.2336 406.147 71.58 399.76 71.58V72.08V72.58C406.279 72.58 411.538 71.2064 415.489 68.408L415.2 68ZM399.76 72.08V71.58H392.56V72.08V72.58H399.76V72.08ZM392.56 72.08H392.06V82.32H392.56H393.06V72.08H392.56ZM392.56 82.32V82.82H398.8V82.32V81.82H392.56V82.32ZM398.8 82.32H398.3V83.2H398.8H399.3V82.32H398.8ZM398.8 83.2V82.7H394.88V83.2V83.7H398.8V83.2ZM394.88 83.2H394.38V93.2H394.88H395.38V83.2H394.88ZM394.88 93.2L394.502 93.5268L397.542 97.0468L397.92 96.72L398.298 96.3932L395.258 92.8732L394.88 93.2ZM397.92 96.72L397.52 96.42L396.56 97.7L396.96 98L397.36 98.3L398.32 97.02L397.92 96.72ZM399.76 70.72V71.22C403.977 71.22 407.443 69.9289 410.11 67.3173L409.76 66.96L409.41 66.6027C406.957 69.0044 403.757 70.22 399.76 70.22V70.72ZM409.76 66.96L410.11 67.3173C412.78 64.7025 414.1 61.2597 414.1 57.04H413.6H413.1C413.1 61.0336 411.86 64.2041 409.41 66.6027L409.76 66.96ZM413.6 57.04H414.1C414.1 54.5761 413.634 52.3662 412.69 50.4215L412.24 50.64L411.79 50.8585C412.659 52.6471 413.1 54.7038 413.1 57.04H413.6ZM412.24 50.64V51.14H414.88V50.64V50.14H412.24V50.64ZM414.88 50.64H415.38V48.88H414.88H414.38V50.64H414.88ZM414.88 48.88V48.38H411.2V48.88V49.38H414.88V48.88ZM411.2 48.88L411.61 48.5945C408.944 44.761 404.966 42.86 399.76 42.86V43.36V43.86C404.688 43.86 408.336 45.639 410.79 49.1655L411.2 48.88ZM399.76 43.36V42.86H395.28V43.36V43.86H399.76V43.36ZM395.28 43.36L394.921 43.0116L392.201 45.8116L392.56 46.16L392.919 46.5084L395.639 43.7084L395.28 43.36ZM392.56 46.16H392.06V48.88H392.56H393.06V46.16H392.56ZM392.56 48.88V48.38H388.16V48.88V49.38H392.56V48.88ZM388.16 48.88H387.66V50.64H388.16H388.66V48.88H388.16ZM388.16 50.64V51.14H392.56V50.64V50.14H388.16V50.64ZM392.56 50.64H392.06V52.56H392.56H393.06V50.64H392.56ZM392.56 52.56V53.06H399.92V52.56V52.06H392.56V52.56ZM399.92 52.56H399.42V53.36H399.92H400.42V52.56H399.92ZM399.92 53.36V52.86H392.56V53.36V53.86H399.92V53.36ZM392.56 53.36H392.06V70.72H392.56H393.06V53.36H392.56ZM392.56 70.72V71.22H399.76V70.72V70.22H392.56V70.72Z" fill="#1E00FF" mask="url(#path-13-outside-7_3_13)"/>
</g>
<g filter="url(#filter7_din_3_13)">
<path d="M439.023 97.4545C437.621 97.4545 436.419 96.9527 435.415 95.9489C434.411 94.9451 433.909 93.7424 433.909 92.3409C433.909 90.9394 434.411 89.7367 435.415 88.733C436.419 87.7292 437.621 87.2273 439.023 87.2273C440.424 87.2273 441.627 87.7292 442.631 88.733C443.634 89.7367 444.136 90.9394 444.136 92.3409C444.136 93.2689 443.9 94.1212 443.426 94.8977C442.972 95.6742 442.356 96.2992 441.58 96.7727C440.822 97.2273 439.97 97.4545 439.023 97.4545Z" fill="url(#paint0_radial_3_13)" shape-rendering="crispEdges"/>
</g>
<path d="M457.136 98V54.3636H463.614V61.1818H464.182C465.091 58.8523 466.559 57.0436 468.585 55.7557C470.612 54.4489 473.045 53.7955 475.886 53.7955C478.765 53.7955 481.161 54.4489 483.074 55.7557C485.006 57.0436 486.511 58.8523 487.591 61.1818H488.045C489.163 58.928 490.839 57.1383 493.074 55.8125C495.309 54.4678 497.989 53.7955 501.114 53.7955C505.015 53.7955 508.206 55.017 510.688 57.4602C513.169 59.8845 514.409 63.6629 514.409 68.7955V98H507.705V68.7955C507.705 65.5758 506.824 63.2746 505.062 61.892C503.301 60.5095 501.227 59.8182 498.841 59.8182C495.773 59.8182 493.396 60.7462 491.71 62.6023C490.025 64.4394 489.182 66.7689 489.182 69.5909V98H482.364V68.1136C482.364 65.6326 481.559 63.6345 479.949 62.1193C478.339 60.5852 476.265 59.8182 473.727 59.8182C471.985 59.8182 470.356 60.2822 468.841 61.2102C467.345 62.1383 466.133 63.4261 465.205 65.0739C464.295 66.7027 463.841 68.5871 463.841 70.7273V98H457.136Z" fill="black"/>
<path d="M545.432 98.9091C541.227 98.9091 537.6 97.9811 534.551 96.125C531.521 94.25 529.182 91.6364 527.534 88.2841C525.905 84.9129 525.091 80.9924 525.091 76.5227C525.091 72.053 525.905 68.1136 527.534 64.7045C529.182 61.2765 531.473 58.6061 534.409 56.6932C537.364 54.7614 540.811 53.7955 544.75 53.7955C547.023 53.7955 549.267 54.1742 551.483 54.9318C553.699 55.6894 555.716 56.9205 557.534 58.625C559.352 60.3106 560.801 62.5455 561.881 65.3295C562.96 68.1136 563.5 71.5417 563.5 75.6136V78.4545H529.864V72.6591H556.682C556.682 70.197 556.189 68 555.205 66.0682C554.239 64.1364 552.856 62.6117 551.057 61.4943C549.277 60.3769 547.174 59.8182 544.75 59.8182C542.08 59.8182 539.769 60.4811 537.818 61.8068C535.886 63.1136 534.4 64.8182 533.358 66.9205C532.316 69.0227 531.795 71.2765 531.795 73.6818V77.5455C531.795 80.8409 532.364 83.6345 533.5 85.9261C534.655 88.1989 536.256 89.9318 538.301 91.125C540.347 92.2992 542.723 92.8864 545.432 92.8864C547.193 92.8864 548.784 92.6402 550.205 92.1477C551.644 91.6364 552.884 90.8788 553.926 89.875C554.968 88.8523 555.773 87.5833 556.341 86.0682L562.818 87.8864C562.136 90.0833 560.991 92.0152 559.381 93.6818C557.771 95.3295 555.782 96.6174 553.415 97.5455C551.047 98.4545 548.386 98.9091 545.432 98.9091Z" fill="black"/>
<defs>
<filter id="filter0_d_3_13" x="8.172" y="7.90002" width="70.3577" height="98.6" filterUnits="userSpaceOnUse" color-interpolation-filters="sRGB">
<feFlood flood-opacity="0" result="BackgroundImageFix"/>
<feColorMatrix in="SourceAlpha" type="matrix" values="0 0 0 0 0 0 0 0 0 0 0 0 0 0 0 0 0 0 127 0" result="hardAlpha"/>
<feOffset dy="4"/>
<feGaussianBlur stdDeviation="2"/>
<feComposite in2="hardAlpha" operator="out"/>
<feColorMatrix type="matrix" values="0 0 0 0 1 0 0 0 0 0 0 0 0 0 0.966667 0 0 0 0.25 0"/>
<feBlend mode="normal" in2="BackgroundImageFix" result="effect1_dropShadow_3_13"/>
<feBlend mode="normal" in="SourceGraphic" in2="effect1_dropShadow_3_13" result="shape"/>
</filter>
<filter id="filter1_d_3_13" x="234.42" y="41.5" width="47.3656" height="65" filterUnits="userSpaceOnUse" color-interpolation-filters="sRGB">
<feFlood flood-opacity="0" result="BackgroundImageFix"/>
<feColorMatrix in="SourceAlpha" type="matrix" values="0 0 0 0 0 0 0 0 0 0 0 0 0 0 0 0 0 0 127 0" result="hardAlpha"/>
<feOffset dy="4"/>
<feGaussianBlur stdDeviation="2"/>
<feComposite in2="hardAlpha" operator="out"/>
<feColorMatrix type="matrix" values="0 0 0 0 1 0 0 0 0 0 0 0 0 0 0.966667 0 0 0 0.25 0"/>
<feBlend mode="normal" in2="BackgroundImageFix" result="effect1_dropShadow_3_13"/>
<feBlend mode="normal" in="SourceGraphic" in2="effect1_dropShadow_3_13" result="shape"/>
</filter>
<filter id="filter2_d_3_13" x="71.1" y="41.5" width="58.84" height="65" filterUnits="userSpaceOnUse" color-interpolation-filters="sRGB">
<feFlood flood-opacity="0" result="BackgroundImageFix"/>
<feColorMatrix in="SourceAlpha" type="matrix" values="0 0 0 0 0 0 0 0 0 0 0 0 0 0 0 0 0 0 127 0" result="hardAlpha"/>
<feOffset dy="4"/>
<feGaussianBlur stdDeviation="2"/>
<feComposite in2="hardAlpha" operator="out"/>
<feColorMatrix type="matrix" values="0 0 0 0 1 0 0 0 0 0 0 0 0 0 0.966667 0 0 0 0.25 0"/>
<feBlend mode="normal" in2="BackgroundImageFix" result="effect1_dropShadow_3_13"/>
<feBlend mode="normal" in="SourceGraphic" in2="effect1_dropShadow_3_13" result="shape"/>
</filter>
<filter id="filter3_d_3_13" x="175.1" y="41.5" width="58.84" height="65" filterUnits="userSpaceOnUse" color-interpolation-filters="sRGB">
<feFlood flood-opacity="0" result="BackgroundImageFix"/>
<feColorMatrix in="SourceAlpha" type="matrix" values="0 0 0 0 0 0 0 0 0 0 0 0 0 0 0 0 0 0 127 0" result="hardAlpha"/>
<feOffset dy="4"/>
<feGaussianBlur stdDeviation="2"/>
<feComposite in2="hardAlpha" operator="out"/>
<feColorMatrix type="matrix" values="0 0 0 0 1 0 0 0 0 0 0 0 0 0 0.966667 0 0 0 0.25 0"/>
<feBlend mode="normal" in2="BackgroundImageFix" result="effect1_dropShadow_3_13"/>
<feBlend mode="normal" in="SourceGraphic" in2="effect1_dropShadow_3_13" result="shape"/>
</filter>
<filter id="filter4_d_3_13" x="117.58" y="41.5" width="66.1864" height="65.48" filterUnits="userSpaceOnUse" color-interpolation-filters="sRGB">
<feFlood flood-opacity="0" result="BackgroundImageFix"/>
<feColorMatrix in="SourceAlpha" type="matrix" values="0 0 0 0 0 0 0 0 0 0 0 0 0 0 0 0 0 0 127 0" result="hardAlpha"/>
<feOffset dy="4"/>
<feGaussianBlur stdDeviation="2"/>
<feComposite in2="hardAlpha" operator="out"/>
<feColorMatrix type="matrix" values="0 0 0 0 1 0 0 0 0 0 0 0 0 0 0.966667 0 0 0 0.25 0"/>
<feBlend mode="normal" in2="BackgroundImageFix" result="effect1_dropShadow_3_13"/>
<feBlend mode="normal" in="SourceGraphic" in2="effect1_dropShadow_3_13" result="shape"/>
</filter>
<filter id="filter5_d_3_13" x="289.182" y="7.90002" width="77.1096" height="100.648" filterUnits="userSpaceOnUse" color-interpolation-filters="sRGB">
<feFlood flood-opacity="0" result="BackgroundImageFix"/>
<feColorMatrix in="SourceAlpha" type="matrix" values="0 0 0 0 0 0 0 0 0 0 0 0 0 0 0 0 0 0 127 0" result="hardAlpha"/>
<feOffset dy="4"/>
<feGaussianBlur stdDeviation="2"/>
<feComposite in2="hardAlpha" operator="out"/>
<feColorMatrix type="matrix" values="0 0 0 0 1 0 0 0 0 0 0 0 0 0 0.966667 0 0 0 0.25 0"/>
<feBlend mode="normal" in2="BackgroundImageFix" result="effect1_dropShadow_3_13"/>
<feBlend mode="normal" in="SourceGraphic" in2="effect1_dropShadow_3_13" result="shape"/>
</filter>
<filter id="filter6_d_3_13" x="375.1" y="41.5" width="52.84" height="65" filterUnits="userSpaceOnUse" color-interpolation-filters="sRGB">
<feFlood flood-opacity="0" result="BackgroundImageFix"/>
<feColorMatrix in="SourceAlpha" type="matrix" values="0 0 0 0 0 0 0 0 0 0 0 0 0 0 0 0 0 0 127 0" result="hardAlpha"/>
<feOffset dy="4"/>
<feGaussianBlur stdDeviation="2"/>
<feComposite in2="hardAlpha" operator="out"/>
<feColorMatrix type="matrix" values="0 0 0 0 1 0 0 0 0 0 0 0 0 0 0.966667 0 0 0 0.25 0"/>
<feBlend mode="normal" in2="BackgroundImageFix" result="effect1_dropShadow_3_13"/>
<feBlend mode="normal" in="SourceGraphic" in2="effect1_dropShadow_3_13" result="shape"/>
</filter>
<filter id="filter7_din_3_13" x="432.909" y="86.2273" width="14.2273" height="14.2272" filterUnits="userSpaceOnUse" color-interpolation-filters="sRGB">
<feFlood flood-opacity="0" result="BackgroundImageFix"/>
<feColorMatrix in="SourceAlpha" type="matrix" values="0 0 0 0 0 0 0 0 0 0 0 0 0 0 0 0 0 0 127 0" result="hardAlpha"/>
<feOffset dx="1" dy="1"/>
<feGaussianBlur stdDeviation="1"/>
<feComposite in2="hardAlpha" operator="out"/>
<feColorMatrix type="matrix" values="0 0 0 0 0 0 0 0 0 0.941176 0 0 0 0 1 0 0 0 0.25 0"/>
<feBlend mode="normal" in2="BackgroundImageFix" result="effect1_dropShadow_3_13"/>
<feBlend mode="normal" in="SourceGraphic" in2="BackgroundImageFix" result="shape"/>
<feColorMatrix in="SourceAlpha" type="matrix" values="0 0 0 0 0 0 0 0 0 0 0 0 0 0 0 0 0 0 127 0" result="hardAlpha"/>
<feOffset dx="2" dy="2"/>
<feGaussianBlur stdDeviation="1"/>
<feComposite in2="hardAlpha" operator="arithmetic" k2="-1" k3="1"/>
<feColorMatrix type="matrix" values="0 0 0 0 0 0 0 0 0 0.941176 0 0 0 0 1 0 0 0 0.25 0"/>
<feBlend mode="normal" in2="shape" result="effect2_innerShadow_3_13"/>
<feTurbulence type="fractalNoise" baseFrequency="1.6666666269302368 1.6666666269302368" stitchTiles="stitch" numOctaves="3" result="noise" seed="792" />
<feColorMatrix in="noise" type="luminanceToAlpha" result="alphaNoise" />
<feComponentTransfer in="alphaNoise" result="coloredNoise1">
<feFuncA type="discrete" tableValues="0 0 0 0 1 1 1 1 1 1 1 1 1 1 1 1 1 1 1 1 1 1 1 1 1 1 1 1 1 1 1 1 1 1 1 1 1 1 1 1 1 1 1 1 1 0 0 0 0 0 0 0 0 0 0 0 0 0 0 0 0 0 0 0 0 0 0 0 0 0 0 0 0 0 0 0 0 0 0 0 0 0 0 0 0 0 0 0 0 0 0 0 0 0 0 0 0 0 0 0 "/>
</feComponentTransfer>
<feComposite operator="in" in2="effect2_innerShadow_3_13" in="coloredNoise1" result="noise1Clipped" />
<feFlood flood-color="rgba(0, 240, 255, 0.25)" result="color1Flood" />
<feComposite operator="in" in2="noise1Clipped" in="color1Flood" result="color1" />
<feMerge result="effect3_noise_3_13">
<feMergeNode in="effect2_innerShadow_3_13" />
<feMergeNode in="color1" />
</feMerge>
<feBlend mode="normal" in="effect3_noise_3_13" in2="effect1_dropShadow_3_13" result="effect3_noise_3_13"/>
</filter>
<radialGradient id="paint0_radial_3_13" cx="0" cy="0" r="1" gradientUnits="userSpaceOnUse" gradientTransform="translate(439 87.5) rotate(90) scale(9.5 25.3369)">
<stop offset="0.182692" stop-color="#00F0FF" stop-opacity="0.6"/>
<stop offset="0.355769" stop-color="#FF2DA8" stop-opacity="0.8"/>
<stop offset="0.490385" stop-color="#FF2DA8"/>
<stop offset="0.620192" stop-color="#FF2DA8" stop-opacity="0.8"/>
<stop offset="0.825184" stop-color="#00F0FF" stop-opacity="0.6"/>
</radialGradient>
</defs>
</svg>
